<?xml version="1.0" encoding="utf-8"?>
<svg xmlns="http://www.w3.org/2000/svg" style="margin: auto; background: rgba(0, 0, 0, 0) none repeat scroll 0% 0%; display: block; shape-rendering: auto;" width="280" height="250" preserveAspectRatio="xMidYMid">
<style type="text/css">
  text {
    text-anchor: middle; font-size: 80px; opacity: 0;
  }
</style>
<g style="transform-origin:140px 125px;transform:scale(1)">
<g transform="translate(140,125)">
  <g transform="translate(0,0)"><g class="path" style="transform: scale(0.91); transform-origin: -75.005px -4.86794px 0px; animation: 1s linear -0.55s infinite normal forwards running breath-35ce9b7f-ce21-48b8-9055-42815e472d72;"><path d="M34.72-0.88L34.72-0.88L34.72-0.88Q36.64-0.88 38.72-3.12L38.72-3.12L39.92-2.16L39.92-2.16Q39.36-1.04 37.44-0.16L37.44-0.16L37.44-0.16Q35.52 0.72 33.20 0.72L33.20 0.72L33.20 0.72Q25.92 0.72 25.92-5.84L25.92-5.84L25.92-5.84Q25.92-8.64 27.36-15.84L27.36-15.84L27.36-15.84Q28.80-23.04 28.80-25.28L28.80-25.28L28.80-25.28Q28.80-28.72 25.52-28.72L25.52-28.72L25.52-28.72Q22.80-28.72 20.28-25.04L20.28-25.04L20.28-25.04Q17.76-21.36 16.16-15.04L16.16-15.04L13.52 0L3.92 0L12.80-50.24L12.80-50.24Q10.40-50 8.80-48L8.80-48L7.60-48.96L7.60-48.96Q10-51.84 13.64-51.84L13.64-51.84L13.64-51.84Q17.28-51.84 19.28-50L19.28-50L19.28-50Q21.28-48.16 21.28-44.80L21.28-44.80L21.28-44.80Q21.28-44.16 21.12-42.72L21.12-42.72L17.76-23.76L17.76-23.76Q21.04-31.12 27.92-31.12L27.92-31.12L27.92-31.12Q32.64-31.12 35.28-28.44L35.28-28.44L35.28-28.44Q37.92-25.76 37.92-21.04L37.92-21.04L37.92-21.04Q37.92-18.56 36.40-11.48L36.40-11.48L36.40-11.48Q34.88-4.40 34.72-0.88" fill="#a69159" stroke="none" stroke-width="none" transform="translate(-96.92497253417969,20.69205993652344)" style="fill: rgb(166, 145, 89);"></path></g><g class="path" style="transform: scale(0.91); transform-origin: -37.565px 5.49206px 0px; animation: 1s linear -0.44s infinite normal forwards running breath-35ce9b7f-ce21-48b8-9055-42815e472d72;"><path d="M56.24 0.72L56.24 0.72Q50.08 0.72 46.88-2.36L46.88-2.36L46.88-2.36Q43.68-5.44 43.68-10.12L43.68-10.12L43.68-10.12Q43.68-14.80 44.52-18.12L44.52-18.12L44.52-18.12Q45.36-21.44 47.28-24.52L47.28-24.52L47.28-24.52Q49.20-27.60 53.08-29.36L53.08-29.36L53.08-29.36Q56.96-31.12 62.76-31.12L62.76-31.12L62.76-31.12Q68.56-31.12 71.80-28.04L71.80-28.04L71.80-28.04Q75.04-24.96 75.04-19.60L75.04-19.60L75.04-19.60Q75.04-10.48 70.20-4.88L70.20-4.88L70.20-4.88Q65.36 0.72 56.24 0.72L56.24 0.72zM52.72-7.52L52.72-7.52L52.72-7.52Q52.72-1.12 56.44-1.12L56.44-1.12L56.44-1.12Q60.16-1.12 63.08-7.56L63.08-7.56L63.08-7.56Q66-14 66-22.88L66-22.88L66-22.88Q66-29.60 62.36-29.60L62.36-29.60L62.36-29.60Q58.72-29.60 55.72-23.48L55.72-23.48L55.72-23.48Q52.72-17.36 52.72-7.52" fill="#a69159" stroke="none" stroke-width="none" transform="translate(-96.92497253417969,20.69205993652344)" style="fill: rgb(41, 52, 57);"></path></g><g class="path" style="transform: scale(0.91); transform-origin: -6.40498px -4.86794px 0px; animation: 1s linear -0.33s infinite normal forwards running breath-35ce9b7f-ce21-48b8-9055-42815e472d72;"><path d="M93.60-2.88L93.60-2.88L93.60-2.88Q92.56-1.52 90.76-0.40L90.76-0.40L90.76-0.40Q88.96 0.72 86.08 0.72L86.08 0.72L86.08 0.72Q83.20 0.72 81.20-1.12L81.20-1.12L81.20-1.12Q79.20-2.96 79.20-6.32L79.20-6.32L79.20-6.32Q79.20-6.96 79.36-8.40L79.36-8.40L84.56-37.20L84.56-37.20Q86.00-45.12 88.52-48.48L88.52-48.48L88.52-48.48Q91.04-51.84 95.20-51.84L95.20-51.84L95.20-51.84Q98.08-51.84 99.96-49.68L99.96-49.68L99.96-49.68Q101.84-47.52 101.84-43.12L101.84-43.12L101.84-43.12Q101.84-38.72 98.44-30.56L98.44-30.56L98.44-30.56Q95.04-22.40 95.04-18.64L95.04-18.64L93.60-18.64L93.60-18.64Q93.60-22.88 96.96-30.76L96.96-30.76L96.96-30.76Q100.32-38.64 100.32-43.36L100.32-43.36L100.32-43.36Q100.32-46.24 99.00-48.32L99.00-48.32L99.00-48.32Q97.68-50.40 95.76-50.40L95.76-50.40L95.76-50.40Q95.68-48.32 93.00-31.72L93.00-31.72L93.00-31.72Q90.32-15.12 87.68-0.88L87.68-0.88L87.68-0.88Q89.92-0.88 91.84-3.20L91.84-3.20L91.84-3.20Q93.76-5.52 94.56-7.84L94.56-7.84L95.44-10.24L96.88-9.60L96.88-9.60Q96.64-8.48 95.64-6.36L95.64-6.36L95.64-6.36Q94.64-4.24 93.60-2.88" fill="#a69159" stroke="none" stroke-width="none" transform="translate(-96.92497253417969,20.69205993652344)" style="fill: rgb(200, 68, 69);"></path></g><g class="path" style="transform: scale(0.91); transform-origin: 15.835px -4.86794px 0px; animation: 1s linear -0.22s infinite normal forwards running breath-35ce9b7f-ce21-48b8-9055-42815e472d72;"><path d="M115.84-2.88L115.84-2.88L115.84-2.88Q114.80-1.52 113.00-0.40L113.00-0.40L113.00-0.40Q111.20 0.72 108.32 0.72L108.32 0.72L108.32 0.72Q105.44 0.72 103.44-1.12L103.44-1.12L103.44-1.12Q101.44-2.96 101.44-6.32L101.44-6.32L101.44-6.32Q101.44-6.96 101.60-8.40L101.60-8.40L106.80-37.20L106.80-37.20Q108.24-45.12 110.76-48.48L110.76-48.48L110.76-48.48Q113.28-51.84 117.44-51.84L117.44-51.84L117.44-51.84Q120.32-51.84 122.20-49.68L122.20-49.68L122.20-49.68Q124.08-47.52 124.08-43.12L124.08-43.12L124.08-43.12Q124.08-38.72 120.68-30.56L120.68-30.56L120.68-30.56Q117.28-22.40 117.28-18.64L117.28-18.64L115.84-18.64L115.84-18.64Q115.84-22.88 119.20-30.76L119.20-30.76L119.20-30.76Q122.56-38.64 122.56-43.36L122.56-43.36L122.56-43.36Q122.56-46.24 121.24-48.32L121.24-48.32L121.24-48.32Q119.92-50.40 118.00-50.40L118.00-50.40L118.00-50.40Q117.92-48.32 115.24-31.72L115.24-31.72L115.24-31.72Q112.56-15.12 109.92-0.88L109.92-0.88L109.92-0.88Q112.16-0.88 114.08-3.20L114.08-3.20L114.08-3.20Q116.00-5.52 116.80-7.84L116.80-7.84L117.68-10.24L119.12-9.60L119.12-9.60Q118.88-8.48 117.88-6.36L117.88-6.36L117.88-6.36Q116.88-4.24 115.84-2.88" fill="#a69159" stroke="none" stroke-width="none" transform="translate(-96.92497253417969,20.69205993652344)" style="fill: rgb(236, 237, 237);"></path></g><g class="path" style="transform: scale(0.91); transform-origin: 44.155px 5.49206px 0px; animation: 1s linear -0.11s infinite normal forwards running breath-35ce9b7f-ce21-48b8-9055-42815e472d72;"><path d="M128.40-29.52L128.40-29.52L128.40-29.52Q126.48-29.52 124.40-27.28L124.40-27.28L123.20-28.24L123.20-28.24Q123.76-29.36 125.68-30.24L125.68-30.24L125.68-30.24Q127.60-31.12 129.92-31.12L129.92-31.12L129.92-31.12Q137.20-31.12 137.20-24.56L137.20-24.56L137.20-24.56Q137.20-21.76 135.76-14.56L135.76-14.56L135.76-14.56Q134.32-7.36 134.32-5.12L134.32-5.12L134.32-5.12Q134.32-1.68 137.60-1.68L137.60-1.68L137.60-1.68Q139.92-1.68 142.12-4.40L142.12-4.40L142.12-4.40Q144.32-7.12 145.92-11.92L145.92-11.92L149.28-30.40L149.28-30.40Q155.20-30.40 157.92-30.88L157.92-30.88L158.96-31.12L153.60-0.88L153.60-0.88Q156.00-1.12 157.60-3.12L157.60-3.12L158.80-2.16L158.80-2.16Q156.40 0.72 152.80 0.72L152.80 0.72L152.80 0.72Q149.20 0.72 147.20-1.04L147.20-1.04L147.20-1.04Q145.20-2.80 145.12-6L145.12-6L145.12-6Q141.76 0.72 135.20 0.72L135.20 0.72L135.20 0.72Q130.48 0.72 127.84-1.96L127.84-1.96L127.84-1.96Q125.20-4.64 125.20-9.36L125.20-9.36L125.20-9.36Q125.20-11.84 126.72-18.92L126.72-18.92L126.72-18.92Q128.24-26 128.40-29.52" fill="#a69159" stroke="none" stroke-width="none" transform="translate(-96.92497253417969,20.69205993652344)" style="fill: rgb(149, 156, 160);"></path></g><g class="path" style="transform: scale(0.91); transform-origin: 82.755px 10.7721px 0px; animation: 1s linear 0s infinite normal forwards running breath-35ce9b7f-ce21-48b8-9055-42815e472d72;"><path d="M179.36 0.64L179.36 0.64L179.36 0.64Q175.68 0.64 173.52-1.04L173.52-1.04L171.12 11.84L161.60 11.84L169.12-30.08L169.12-30.08Q166.72-29.84 165.12-27.84L165.12-27.84L163.92-28.80L163.92-28.80Q166.32-31.68 169.88-31.68L169.88-31.68L169.88-31.68Q173.44-31.68 175.44-29.96L175.44-29.96L175.44-29.96Q177.44-28.24 177.60-25.12L177.60-25.12L177.60-25.12Q181.12-31.12 186.56-31.12L186.56-31.12L186.56-31.12Q192.00-31.12 194.88-28.04L194.88-28.04L194.88-28.04Q197.76-24.96 197.76-19.60L197.76-19.60L197.76-19.60Q197.76-10.16 192.64-4.76L192.64-4.76L192.64-4.76Q187.52 0.64 179.36 0.64zM176.96-19.92L174.08-4.24L174.08-4.24Q175.44-1.20 179.24-1.20L179.24-1.20L179.24-1.20Q183.04-1.20 185.88-7.60L185.88-7.60L185.88-7.60Q188.72-14 188.72-22.88L188.72-22.88L188.72-22.88Q188.72-26.56 187.96-27.92L187.96-27.92L187.96-27.92Q187.20-29.28 185.20-29.28L185.20-29.28L185.20-29.28Q183.20-29.28 181.08-26.88L181.08-26.88L181.08-26.88Q178.96-24.48 178.00-22.36L178.00-22.36L178.00-22.36Q177.04-20.24 177.04-19.92L177.04-19.92L176.96-19.92" fill="#a69159" stroke="none" stroke-width="none" transform="translate(-96.92497253417969,20.69205993652344)" style="fill: rgb(166, 145, 89);"></path></g></g>
</g>
</g>
<style id="breath-35ce9b7f-ce21-48b8-9055-42815e472d72" data-anikit="">@keyframes breath-35ce9b7f-ce21-48b8-9055-42815e472d72
{
  0% {
    animation-timing-function: cubic-bezier(0.9647,0.2413,-0.0705,0.7911);
    transform: scale(0.9099999999999999);
  }
  51% {
    animation-timing-function: cubic-bezier(0.9226,0.2631,-0.0308,0.7628);
    transform: scale(1.02994);
  }
  100% {
    transform: scale(0.9099999999999999);
  }
}</style></svg>